<svg version="1.1" xmlns="http://www.w3.org/2000/svg" xmlns:xlink="http://www.w3.org/1999/xlink" width="24" height="24" viewBox="0,0,256,256"><g fill="#ffffff" fill-rule="nonzero" stroke="none" stroke-width="1" stroke-linecap="butt" stroke-linejoin="miter" stroke-miterlimit="10" stroke-dasharray="" stroke-dashoffset="0" font-family="none" font-weight="none" font-size="none" text-anchor="none" style="mix-blend-mode: normal"><g transform="scale(10.66667,10.66667)"><path d="M19,15.59l-1.41,1.41l-3.59,-3.59l-3.59,3.59l-1.41,-1.41l3.59,-3.59l-3.59,-3.59l1.41,-1.41l3.59,3.59l3.59,-3.59l1.41,1.41l-3.59,3.59l3.59,3.59M22,3c1.10457,0 2,0.89543 2,2v14c0,1.10457 -0.89543,2 -2,2h-15c-0.69,0 -1.23,-0.36 -1.59,-0.89l-5.41,-8.11l5.41,-8.12c0.36,-0.53 0.9,-0.88 1.59,-0.88h15M22,5h-15l-4.72,7l4.72,7h15z"></path></g></g></svg>