<?xml version="1.0" encoding="UTF-8"?>
<svg version="1.1" xmlns="http://www.w3.org/2000/svg" width="100" height="100">
<path d="M0 0 C0.19335938 0.92683594 0.38671875 1.85367187 0.5859375 2.80859375 C0.84632812 4.00613281 1.10671875 5.20367187 1.375 6.4375 C1.63023438 7.63246094 1.88546875 8.82742187 2.1484375 10.05859375 C2.42945313 11.02925781 2.71046875 11.99992187 3 13 C3.66 13.33 4.32 13.66 5 14 C5.027193 12.41676312 5.04648306 10.83338938 5.0625 9.25 C5.07410156 8.36828125 5.08570312 7.4865625 5.09765625 6.578125 C5.00826198 4.2181162 4.66912821 2.25501476 4 0 C6.64 0 9.28 0 12 0 C12 4.29 12 8.58 12 13 C12.66 13.33 13.32 13.66 14 14 C14.13277344 13.07316406 14.26554687 12.14632812 14.40234375 11.19140625 C14.57894531 9.99386719 14.75554688 8.79632813 14.9375 7.5625 C15.19853516 5.77005859 15.19853516 5.77005859 15.46484375 3.94140625 C16 1 16 1 17 0 C20.78279185 0.14274686 23.21274391 0.36628677 26.203125 2.7734375 C29.02330124 7.83749309 28.53836016 12.80628115 28.4375 18.5 C28.44458984 19.62792969 28.45167969 20.75585938 28.45898438 21.91796875 C28.38253486 31.85640597 28.38253486 31.85640597 25 36 C21.8125 37.3125 21.8125 37.3125 19 38 C19.01047363 39.0194873 19.02094727 40.03897461 19.03173828 41.08935547 C19.06788727 44.86503602 19.09088177 48.64070121 19.10986328 52.41650391 C19.11993254 54.05194672 19.13358881 55.68737149 19.15087891 57.32275391 C19.17508705 59.6709437 19.18647357 62.01889588 19.1953125 64.3671875 C19.20563507 65.10057343 19.21595764 65.83395935 19.22659302 66.58956909 C19.22699368 68.39462697 19.12212755 70.1990783 19 72 C17 74 17 74 13.5 74.25 C10 74 10 74 8 72 C7.01 72.99 7.01 72.99 6 74 C3.0625 74.375 3.0625 74.375 0 74 C-2.58259229 71.58963077 -2.98473862 70.15197923 -3.34057617 66.60839844 C-3.32486572 65.2887207 -3.30915527 63.96904297 -3.29296875 62.609375 C-3.28872391 61.90476135 -3.28447906 61.20014771 -3.28010559 60.47418213 C-3.26336538 58.23239288 -3.22572404 55.99151569 -3.1875 53.75 C-3.17244704 52.22657552 -3.1587597 50.70313689 -3.14648438 49.1796875 C-3.11347791 45.45283059 -3.06172854 41.72650437 -3 38 C-3.94875 37.731875 -4.8975 37.46375 -5.875 37.1875 C-9 36 -9 36 -11 33 C-11.49877459 28.39060745 -11.4166287 23.75842784 -11.4375 19.125 C-11.48680664 17.20494141 -11.48680664 17.20494141 -11.53710938 15.24609375 C-11.59747467 4.74253179 -11.59747467 4.74253179 -8.84765625 1.6171875 C-5.59444458 -0.23031543 -3.68337811 -0.42829978 0 0 Z " fill="#FFFFFF" transform="translate(42,26)"/>
<path d="M0 0 C2.64 0 5.28 0 8 0 C8 4.62 8 9.24 8 14 C8.66 14 9.32 14 10 14 C10.13277344 13.15695313 10.26554687 12.31390625 10.40234375 11.4453125 C10.57894531 10.34960938 10.75554687 9.25390625 10.9375 8.125 C11.19853516 6.48917969 11.19853516 6.48917969 11.46484375 4.8203125 C12 2 12 2 13 0 C18.3383016 -0.48530015 18.3383016 -0.48530015 21.16772461 1.58984375 C23.59964466 4.78876643 23.53051934 6.81868521 23.56640625 10.8125 C23.57570412 11.78860229 23.57570412 11.78860229 23.58518982 12.78442383 C23.592273 14.15607207 23.58913995 15.52780655 23.57641602 16.89941406 C23.56253676 18.99445088 23.59664064 21.08502711 23.63476562 23.1796875 C23.63571683 24.51562609 23.63385789 25.85157025 23.62890625 27.1875 C23.62963135 28.39792969 23.63035645 29.60835937 23.63110352 30.85546875 C23 34 23 34 20.58569336 36.36328125 C18 38 18 38 16 39 C16.01571045 39.88260498 16.0314209 40.76520996 16.04760742 41.67456055 C16.09887998 44.96400886 16.13641917 48.25302961 16.16479492 51.54272461 C16.1798376 52.96369141 16.20027704 54.38461213 16.22631836 55.80541992 C16.26290347 57.85346886 16.27977097 59.9009015 16.29296875 61.94921875 C16.3086792 63.17987061 16.32438965 64.41052246 16.34057617 65.6784668 C15.96953609 69.29710504 15.29656147 71.19235881 13 74 C9.5 74.3125 9.5 74.3125 6 74 C2.91236499 73.95553403 2.91236499 73.95553403 -0.5 74.3125 C-1.655 74.209375 -2.81 74.10625 -4 74 C-8.30821606 68.67768372 -7.48701379 62.6041774 -7.44604492 56.08007812 C-7.43752261 54.00550465 -7.46634248 51.93367775 -7.49804688 49.859375 C-7.49740234 48.54453125 -7.49675781 47.2296875 -7.49609375 45.875 C-7.49794678 44.67617187 -7.4997998 43.47734375 -7.50170898 42.2421875 C-6.90517329 38.3872026 -5.47828211 36.93167419 -3 34 C-2.37387273 31.60719034 -2.37387273 31.60719034 -2.390625 29.13671875 C-2.35839844 28.25048828 -2.32617188 27.36425781 -2.29296875 26.45117188 C-2.27878906 25.53916016 -2.26460938 24.62714844 -2.25 23.6875 C-2.22035156 22.75615234 -2.19070312 21.82480469 -2.16015625 20.86523438 C-2.08974096 18.57673735 -2.03690786 16.28924191 -2 14 C-1.01 14 -0.02 14 1 14 C1.02705729 12.22925083 1.04642195 10.45838289 1.0625 8.6875 C1.07410156 7.70136719 1.08570312 6.71523438 1.09765625 5.69921875 C1.12329862 2.90036151 1.12329862 2.90036151 0 0 Z " fill="#FFFFFF" transform="translate(74,26)"/>
<path d="M0 0 C0.19335938 0.92683594 0.38671875 1.85367187 0.5859375 2.80859375 C0.84632812 4.00613281 1.10671875 5.20367187 1.375 6.4375 C1.63023438 7.63246094 1.88546875 8.82742187 2.1484375 10.05859375 C2.42945313 11.02925781 2.71046875 11.99992187 3 13 C3.66 13.33 4.32 13.66 5 14 C5.027193 12.41676312 5.04648306 10.83338938 5.0625 9.25 C5.07410156 8.36828125 5.08570312 7.4865625 5.09765625 6.578125 C5.00826198 4.2181162 4.66912821 2.25501476 4 0 C6.64 0 9.28 0 12 0 C11.67 4.62 11.34 9.24 11 14 C11.99 14 12.98 14 14 14 C14.03738281 15.24136719 14.07476563 16.48273437 14.11328125 17.76171875 C14.1789595 19.40367511 14.2454062 21.04560087 14.3125 22.6875 C14.33505859 23.50412109 14.35761719 24.32074219 14.38085938 25.16210938 C14.61059481 30.32071419 15.1709577 34.1709577 19 38 C19.11325718 40.41323441 19.16417025 42.79677404 19.16796875 45.2109375 C19.17129715 45.93487701 19.17462555 46.65881653 19.17805481 47.4046936 C19.18312739 48.93971113 19.18546303 50.47473972 19.18530273 52.00976562 C19.18748445 54.35825849 19.20562287 56.70627815 19.22460938 59.0546875 C19.22754419 60.54426922 19.2295284 62.03385318 19.23046875 63.5234375 C19.23765427 64.22665131 19.24483978 64.92986511 19.25224304 65.65438843 C19.23502296 69.33294689 19.09860684 70.85208974 17 74 C13.625 74.1875 13.625 74.1875 10 74 C7.64500383 74 5.28809476 74.04358604 2.9375 74.1875 C-0 74 -0 74 -1.6652832 72.95776367 C-3.6959451 69.97918717 -3.36914332 66.96325369 -3.29296875 63.48828125 C-3.28872391 62.76005661 -3.28447906 62.03183197 -3.28010559 61.28153992 C-3.26332733 58.95814873 -3.22567855 56.6356285 -3.1875 54.3125 C-3.17245197 52.73634066 -3.15876377 51.16016771 -3.14648438 49.58398438 C-3.11342685 45.72232123 -3.06165194 41.86130822 -3 38 C-3.94875 37.731875 -4.8975 37.46375 -5.875 37.1875 C-9 36 -9 36 -11 33 C-11.43002773 28.87481762 -11.41401079 24.74923683 -11.42553711 20.60327148 C-11.43744325 18.57218075 -11.48663741 16.54412217 -11.53710938 14.51367188 C-11.54419922 13.23169922 -11.55128906 11.94972656 -11.55859375 10.62890625 C-11.57204834 9.45400635 -11.58550293 8.27910645 -11.59936523 7.06860352 C-11 4 -11 4 -8.67211914 1.60131836 C-5.52289021 -0.28591714 -3.60992918 -0.33580737 0 0 Z " fill="#FFFFFF" transform="translate(14,26)"/>
<path d="M0 0 C3.47060168 2.06759249 5.77725393 4.10944433 7 8 C7.58157239 12.48641557 7.35123975 14.43588767 4.9375 18.3125 C1.5371825 21.42342877 -0.4305083 22.44850962 -5 23 C-9.10099161 21.70135266 -12.26862556 20.35501195 -15 17 C-16.2333744 12.83150679 -16.47673336 9.15419655 -14.8125 5.125 C-10.40492558 -0.04250104 -6.73307042 -1.09412394 0 0 Z " fill="#FFFFFF" transform="translate(83,0)"/>
<path d="M0 0 C3.12068856 1.79273598 4.54965052 3.24259405 6.375 6.3125 C7.47146246 11.02728857 6.77397115 14.60685194 4.4375 18.8125 C1.20735237 21.71135044 -1.66371415 22.80746221 -6 23 C-10.67270718 21.47238419 -13.53758108 19.2618789 -16 15 C-16.91825498 8.57221516 -16.91825498 8.57221516 -14.94140625 5.1875 C-10.53273385 -0.2546594 -6.70256177 -0.83492119 0 0 Z " fill="#FFFFFF" transform="translate(55,0)"/>
<path d="M0 0 C3.19978182 2.45089671 5.84704954 5.07996844 7 9 C6.9228217 13.24480671 6.44952217 15.40504419 3.875 18.8125 C0.55134767 21.3413659 -1.88100745 22.33801906 -6 23 C-10.05177228 22.05772738 -12.28963323 20.09756203 -15 17 C-16.61429923 13.77140153 -16.59570657 10.49006347 -16 7 C-12.17537244 0.33544376 -7.29866976 -1.13647107 0 0 Z " fill="#FFFFFF" transform="translate(27,0)"/>
</svg>
