<?xml version="1.0" encoding="UTF-8"?>
<svg version="1.1" xmlns="http://www.w3.org/2000/svg" width="100" height="100">
<path d="M0 0 C5.63158028 2.61466227 8.66979686 6.51415515 10.875 12.29296875 C12.66056914 17.82994999 13.63464098 23.20500003 14 29 C14.08765625 29.78761719 14.1753125 30.57523438 14.265625 31.38671875 C14.43613085 33.73117417 14.46548351 35.69496147 14 38 C8.45168696 44.36026129 1.12450999 45.28679869 -7 46 C-32.8177546 47.06816004 -32.8177546 47.06816004 -43 44 C-43.81984375 43.78601563 -44.6396875 43.57203125 -45.484375 43.3515625 C-48.25644362 42.2331762 -49.37285489 41.53111462 -51 39 C-52.47802994 29.58367679 -52.11380681 18.2871387 -46.7578125 10.1015625 C-45.03918429 7.93548079 -43.4910067 6.24550335 -41 5 C-38.99397631 5.04183574 -36.98786909 5.088421 -34.98291016 5.16601562 C-27.06728944 5.44067505 -21.67532569 4.96096197 -14.58984375 1.12890625 C-9.84166102 -0.94081443 -5.0523198 -0.79150544 0 0 Z " fill="#FFFFFF" transform="translate(69,22)"/>
<path d="M0 0 C0.33 2.64 0.66 5.28 1 8 C19.555238 15.8216423 42.7015886 16.58948342 61.8125 10.375 C64.52767595 9.19527181 65.68719831 8.60699808 67.05078125 5.9609375 C67.74501205 3.52087744 67.74501205 3.52087744 68 0 C73.82181662 0.58218166 78.07640951 1.95348666 82.875 5.3125 C84.70570532 8.05855797 84.57811377 9.78825683 84 13 C76.95857069 20.76362719 65.32565152 22.47775893 55.27526855 23.19424438 C52.49941106 23.27715511 49.73020592 23.30345647 46.953125 23.30078125 C45.43171906 23.30720894 45.43171906 23.30720894 43.87957764 23.31376648 C41.748502 23.31946854 39.61740692 23.32004079 37.48632812 23.31567383 C34.27178781 23.31252137 31.05817656 23.33600025 27.84375 23.36132812 C-4.34648377 23.46062498 -4.34648377 23.46062498 -14.671875 14.55859375 C-16 13 -16 13 -16.5 10.0625 C-16 7 -16 7 -13.9375 4.8125 C-9.27824522 1.93764067 -5.53042465 0 0 0 Z " fill="#FFFFFF" transform="translate(16,55)"/>
</svg>
