<?xml version="1.0" encoding="UTF-8"?>
<svg version="1.1" xmlns="http://www.w3.org/2000/svg" width="100" height="100">
<path d="M0 0 C3.0625 0.3125 3.0625 0.3125 4.875 1.5 C6.3309696 3.72226938 6.59957359 5.71756388 7.0625 8.3125 C7.66835938 8.45945312 8.27421875 8.60640625 8.8984375 8.7578125 C21.45825572 12.11997922 31.11845928 18.79904671 37.734375 30.19140625 C40.13727103 35.1524416 41.31496052 38.74208077 41.0625 44.3125 C41.990625 44.250625 42.91875 44.18875 43.875 44.125 C47.0625 44.3125 47.0625 44.3125 48.9375 45.4375 C50.59104531 48.19340884 50.45615568 50.16325452 50.0625 53.3125 C48.9375 55.1875 48.9375 55.1875 47.0625 56.3125 C43.875 56.5 43.875 56.5 41.0625 56.3125 C40.9696875 58.2615625 40.9696875 58.2615625 40.875 60.25 C39.79235342 69.5987995 33.79456261 77.05203548 27.0625 83.3125 C22.18070908 86.97983557 17.47997975 89.32886675 11.5625 90.8125 C9.10867185 91.38821319 9.10867185 91.38821319 7.0625 92.3125 C5.43942014 95.26070584 5.43942014 95.26070584 5.0625 98.3125 C3.0625 100.3125 3.0625 100.3125 0.125 100.625 C-2.9375 100.3125 -2.9375 100.3125 -4.75 99.125 C-6.2059696 96.90273062 -6.47457359 94.90743612 -6.9375 92.3125 C-7.54335938 92.16554688 -8.14921875 92.01859375 -8.7734375 91.8671875 C-21.33325572 88.50502078 -30.99345928 81.82595329 -37.609375 70.43359375 C-40.01227103 65.4725584 -41.18996052 61.88291923 -40.9375 56.3125 C-41.865625 56.374375 -42.79375 56.43625 -43.75 56.5 C-46.9375 56.3125 -46.9375 56.3125 -48.8125 55.1875 C-50.46604531 52.43159116 -50.33115568 50.46174548 -49.9375 47.3125 C-48.8125 45.4375 -48.8125 45.4375 -46.9375 44.3125 C-43.75 44.125 -43.75 44.125 -40.9375 44.3125 C-40.8446875 42.3634375 -40.8446875 42.3634375 -40.75 40.375 C-39.66735342 31.0262005 -33.66956261 23.57296452 -26.9375 17.3125 C-22.05570908 13.64516443 -17.35497975 11.29613325 -11.4375 9.8125 C-8.98367185 9.23678681 -8.98367185 9.23678681 -6.9375 8.3125 C-5.31442014 5.36429416 -5.31442014 5.36429416 -4.9375 2.3125 C-2.9375 0.3125 -2.9375 0.3125 0 0 Z M-6.9375 20.3125 C-16.45844217 24.29013806 -22.91055894 28.00797556 -27.9375 37.3125 C-28.83915965 39.66540233 -29.41118386 41.83881415 -29.9375 44.3125 C-27.9575 44.9725 -25.9775 45.6325 -23.9375 46.3125 C-23.25 49.125 -23.25 49.125 -22.9375 52.3125 C-24.73830579 54.96631906 -27.11177055 55.93181232 -29.9375 57.3125 C-26.28555891 67.31648756 -22.38399257 73.06620966 -12.9375 78.3125 C-10.58472872 79.21840281 -8.41257642 79.785888 -5.9375 80.3125 C-5.2775 78.3325 -4.6175 76.3525 -3.9375 74.3125 C-1.125 73.625 -1.125 73.625 2.0625 73.3125 C4.71631906 75.11330579 5.68181232 77.48677055 7.0625 80.3125 C16.58344217 76.33486194 23.03555894 72.61702444 28.0625 63.3125 C28.96415965 60.95959767 29.53618386 58.78618585 30.0625 56.3125 C28.0825 55.6525 26.1025 54.9925 24.0625 54.3125 C23.375 51.5 23.375 51.5 23.0625 48.3125 C24.86330579 45.65868094 27.23677055 44.69318768 30.0625 43.3125 C26.08486194 33.79155783 22.36702444 27.33944106 13.0625 22.3125 C10.70959767 21.41084035 8.53618585 20.83881614 6.0625 20.3125 C5.4025 22.2925 4.7425 24.2725 4.0625 26.3125 C1.25 27 1.25 27 -1.9375 27.3125 C-4.59131906 25.51169421 -5.55681232 23.13822945 -6.9375 20.3125 Z " fill="#FFFFFF" transform="translate(49.9375,-0.3125)"/>
</svg>
