<?xml version="1.0" encoding="UTF-8"?>
<svg version="1.1" xmlns="http://www.w3.org/2000/svg" width="100" height="100">
<path d="M0 0 C0.90065186 0.01015137 1.80130371 0.02030273 2.72924805 0.03076172 C11.62994238 0.23867291 19.21041424 1.20940926 25.85546875 7.60546875 C31.41469759 14.0793265 33.67586579 21.88171817 36.06640625 29.921875 C37.66452994 34.13901332 39.51076075 37.04453865 43.203125 39.6796875 C46.2309736 40.64903471 48.95503887 40.56339922 52.125 40.5 C53.29546875 40.48195312 54.4659375 40.46390625 55.671875 40.4453125 C56.56390625 40.42210937 57.4559375 40.39890625 58.375 40.375 C57.71242188 39.76914062 57.04984375 39.16328125 56.3671875 38.5390625 C55.38105469 37.46785156 55.38105469 37.46785156 54.375 36.375 C54.53650205 32.98345705 54.95796757 31.79203243 57.375 29.375 C59.54296875 28.83984375 59.54296875 28.83984375 62.375 29.375 C65.09438765 31.28715401 67.3609268 33.57258986 69.6875 35.9375 C70.33267578 36.54658203 70.97785156 37.15566406 71.64257812 37.78320312 C74.64777673 40.78840173 76.20869688 42.67870282 77.2109375 46.875 C76.01771776 51.87091071 73.35248689 54.35254734 69.6875 57.8125 C68.74874023 58.76672852 68.74874023 58.76672852 67.79101562 59.74023438 C63.17710938 64.23818905 63.17710938 64.23818905 59.53515625 64.859375 C57.375 64.375 57.375 64.375 55.5 63.1875 C54.375 61.375 54.375 61.375 54.5 58.9375 C55.41619384 56.25436091 56.63750299 54.58678673 58.375 52.375 C57.34052734 52.42720703 57.34052734 52.42720703 56.28515625 52.48046875 C47.59874789 52.73069451 40.97850924 51.79841036 34.125 46.1875 C28.17049571 40.49291455 25.48598518 35.21645599 23.375 27.25 C21.72249228 21.0264427 20.23705885 16.74465303 14.55102539 13.25585938 C11.94274559 12.20002256 9.86923828 12.08813472 7.05859375 12.03125 C6.04732422 12.00160156 5.03605469 11.97195312 3.99414062 11.94140625 C1.86914232 11.89705392 -0.25585768 11.85278339 -2.38085938 11.80859375 C-3.39083984 11.77894531 -4.40082031 11.74929687 -5.44140625 11.71875 C-6.36381104 11.70005859 -7.28621582 11.68136719 -8.23657227 11.66210938 C-10.625 11.375 -10.625 11.375 -13.625 9.375 C-14.0625 6.4375 -14.0625 6.4375 -13.625 3.375 C-10.05001244 -0.80724572 -5.06107889 -0.08056241 0 0 Z " fill="#FFFFFF" transform="translate(18.625,23.625)"/>
<path d="M0 0 C5.24199097 0.5924349 7.25567199 2.74180871 10.80859375 6.4375 C11.39705078 6.99050781 11.98550781 7.54351562 12.59179688 8.11328125 C15.60477364 11.15775255 17.25800954 13.31921105 17.39453125 17.69140625 C16.75369004 22.27772506 15.49615768 23.6554742 11.87109375 26.4375 C10.88109375 26.7675 9.89109375 27.0975 8.87109375 27.4375 C8.87109375 28.0975 8.87109375 28.7575 8.87109375 29.4375 C6.46472973 31.84983514 3.86077395 33.80424878 0.87109375 35.4375 C-2.06640625 35.125 -2.06640625 35.125 -4.12890625 33.4375 C-5.19140625 31.125 -5.19140625 31.125 -5.12890625 28.4375 C-3.19140625 25.625 -3.19140625 25.625 -1.12890625 23.4375 C-8.60943459 22.99530128 -14.09104497 22.68429006 -20.12890625 27.4375 C-21.91853444 30.05607695 -21.91853444 30.05607695 -23.12890625 32.4375 C-23.78890625 32.4375 -24.44890625 32.4375 -25.12890625 32.4375 C-25.61089088 31.18858386 -26.08936302 29.93831192 -26.56640625 28.6875 C-26.83324219 27.99140625 -27.10007813 27.2953125 -27.375 26.578125 C-28.09037318 24.54690997 -28.64256277 22.5339709 -29.12890625 20.4375 C-20.71337283 13.35194188 -13.01586821 11.09662713 -2.12890625 10.4375 C-2.6290625 9.83292969 -3.12921875 9.22835938 -3.64453125 8.60546875 C-5.12890625 6.4375 -5.12890625 6.4375 -4.87890625 3.75 C-3.76749182 0.32313884 -3.73513049 0.52226544 0 0 Z " fill="#FFFFFF" transform="translate(78.12890625,12.5625)"/>
<path d="M0 0 C0.66 0 1.32 0 2 0 C2.70226141 1.24176695 3.38629109 2.49385599 4.0625 3.75 C4.44535156 4.44609375 4.82820313 5.1421875 5.22265625 5.859375 C6.16495972 8.45426094 6.10514494 9.48414009 5 12 C3.3984375 13.6328125 3.3984375 13.6328125 1.375 15.125 C0.72273438 15.62257813 0.07046875 16.12015625 -0.6015625 16.6328125 C-7.02458242 20.29414307 -13.51025547 20.31001877 -20.6875 20.25 C-22.09225586 20.26160156 -22.09225586 20.26160156 -23.52539062 20.2734375 C-24.42837891 20.27085938 -25.33136719 20.26828125 -26.26171875 20.265625 C-27.48314575 20.26224121 -27.48314575 20.26224121 -28.72924805 20.25878906 C-31.20986018 19.97608302 -32.85098386 19.24032627 -35 18 C-35.1875 14.625 -35.1875 14.625 -35 11 C-31.65366528 8.76911019 -30.60125622 8.76896475 -26.703125 8.796875 C-25.14078125 8.77947266 -25.14078125 8.77947266 -23.546875 8.76171875 C-21.36458314 8.75396179 -19.18217798 8.76155096 -17 8.78515625 C-10.58534612 8.68245859 -6.81833188 8.09589043 -2.19824219 3.48144531 C-0.90765105 1.99427706 -0.90765105 1.99427706 0 0 Z " fill="#FFFFFF" transform="translate(40,56)"/>
</svg>
