<?xml version="1.0" encoding="UTF-8"?>
<svg version="1.1" xmlns="http://www.w3.org/2000/svg" width="100" height="100">
<path d="M0 0 C2 1.4375 2 1.4375 3 4 C2.95657169 5.37884882 2.87973203 6.75679965 2.78125 8.1328125 C2.72027642 13.53496241 4.66890253 16.96130534 7.5 21.4375 C12 28.83614865 12 28.83614865 12 31 C24.88374284 33.74436898 24.88374284 33.74436898 37.8125 33.375 C40 33 40 33 42.75 34.3125 C45 36 45 36 46 38 C46.38425932 41.53518573 46.48848801 43.32363198 44.375 46.25 C42 48 42 48 39.1875 48.8125 C35.3394534 50.24608599 33.42392791 52.17349738 30.68359375 55.1640625 C29 57 29 57 26 59.625 C22.81495679 64.99976043 24.1808654 70.00019835 25 76 C25.04382813 76.88042969 25.08765625 77.76085937 25.1328125 78.66796875 C25.4158314 84.30004482 26.83598987 86.04952885 31 90 C31.55014903 93.3696628 31.3181446 95.24440659 30 98.375 C27.2883736 100.57819645 25.28855649 100.50842972 21.87109375 100.3203125 C20 100 20 100 18.0625 98.8125 C16.75087013 96.57501375 16.34552388 94.55687669 16 92 C13.91092987 91.33846113 11.82076199 90.68027343 9.7265625 90.03515625 C7 89 7 89 4.3984375 87.37109375 C0.44115191 85.05803245 -2.7006215 83.44801511 -7.34521484 84.56298828 C-14.2516334 87.03496864 -22.06392571 89.83635611 -25.99609375 96.26171875 C-26.32738281 97.16535156 -26.65867187 98.06898437 -27 99 C-28.87643761 100.87643761 -31.49805701 100.17984987 -33.9921875 100.23046875 C-36 100 -36 100 -39 98 C-39.9375 94.6875 -39.9375 94.6875 -40 91 C-38.1875 88.0625 -38.1875 88.0625 -36 86 C-35.34 86 -34.68 86 -34 86 C-33.62549281 82.33695013 -33.3368811 78.67179916 -33.0625 75 C-32.95615234 73.97003906 -32.84980469 72.94007812 -32.74023438 71.87890625 C-32.35865146 66.17333315 -32.49768534 62.81702137 -36.34375 58.3984375 C-37.53488254 57.23662039 -38.75127886 56.09968689 -40 55 C-41.35053546 53.68409365 -42.69306167 52.35921586 -44 51 C-44 50.34 -44 49.68 -44 49 C-45.093125 48.896875 -46.18625 48.79375 -47.3125 48.6875 C-51 48 -51 48 -52.9375 46.875 C-54.69297303 43.77710642 -54.48723574 41.47155466 -54 38 C-52.125 35.5625 -52.125 35.5625 -49 34 C-47.07421875 33.90234375 -47.07421875 33.90234375 -44.8125 34 C-36.86511874 34.1668116 -28.04498276 34.10613361 -21 30 C-16.28438643 25.18749899 -12.67363724 18.52871268 -11 12 C-11.21091376 8.19139291 -11.21091376 8.19139291 -12 5 C-10.01720717 -0.79585596 -5.57357338 -0.77505724 0 0 Z " fill="#FFFFFF" transform="translate(54,0)"/>
</svg>
