<?xml version="1.0" encoding="UTF-8"?>
<svg version="1.1" xmlns="http://www.w3.org/2000/svg" width="100" height="100">
<path d="M0 0 C11.63577113 7.56941238 19.11621719 17.99423113 22.33203125 31.4921875 C23.83059199 45.39936043 21.88441025 57.80826279 13.30859375 69.17578125 C5.52422179 78.2985729 -4.5878313 85.36934844 -16.79833984 86.72949219 C-30.78226986 87.56010065 -42.6590068 85.72942806 -53.67578125 76.3671875 C-62.6685802 67.90337672 -69.28501288 57.78262791 -70.0390625 45.109375 C-70.41106275 30.74444244 -67.80010049 19.25757747 -57.66796875 8.4921875 C-42.55737695 -7.0591299 -18.98692557 -10.73053187 0 0 Z M-55.0703125 13.44921875 C-63.1970064 23.84105471 -65.82162935 34.7929158 -64.42578125 47.73828125 C-62.64739852 57.91861502 -56.85073449 67.23880298 -48.66796875 73.4921875 C-38.20786476 79.82181916 -27.66121507 83.41774876 -15.45703125 80.8046875 C-4.14027216 77.63916048 4.54097765 72.22751052 11.33203125 62.4921875 C17.30610775 50.84051471 19.1967856 39.88352431 15.37109375 27.2265625 C10.8750024 15.39474316 3.6014422 8.00278266 -7.75 2.71484375 C-24.45437301 -4.28444508 -42.72216683 0.22531807 -55.0703125 13.44921875 Z " fill="#FFFFFF" transform="translate(73.66796875,9.5078125)"/>
<path d="M0 0 C3.08787726 0.46937359 4.92862061 1.48926926 7.29296875 3.484375 C7.91445801 4.00080566 8.53594727 4.51723633 9.17626953 5.04931641 C9.83997559 5.61054199 10.50368164 6.17176758 11.1875 6.75 C16.91179042 11.49893354 22.69910636 16.12993834 28.625 20.625 C29.67530396 21.42587036 29.67530396 21.42587036 30.74682617 22.24291992 C33.52366222 24.36009233 36.30192008 26.47505563 39.09277344 28.57373047 C41.06876625 30.06112268 43.03502831 31.56059457 45 33.0625 C45.59377441 33.50352051 46.18754883 33.94454102 46.79931641 34.39892578 C49.08199141 36.1563474 50.78698138 37.53485388 52 40.18359375 C52 40.78300781 52 41.38242188 52 42 C51.34 42.66 50.68 43.32 50 44 C45.97599439 43.75072532 43.31344749 41.16032671 40.25 38.75 C39.68925781 38.31107422 39.12851563 37.87214844 38.55078125 37.41992188 C33.30300117 33.29174477 28.13483807 29.06356746 22.96630859 24.83691406 C17.67963002 20.52224863 12.30391451 16.34218971 6.8671875 12.21875 C3.84624201 9.88101562 0.92063292 7.46130489 -2 5 C-1.125 1.125 -1.125 1.125 0 0 Z " fill="#FFFFFF" transform="translate(27,28)"/>
<path d="M0 0 C3.875 1.875 3.875 1.875 5 3 C5.43561257 8.44515716 4.66533968 12.22077023 2 17 C-1.56758466 20.25279778 -5.12620358 20.51839537 -9.78125 20.35546875 C-14.06562738 19.66906322 -16.89859197 17.48450647 -19.4375 14.0625 C-20.2216046 11.1874498 -20.09167974 9.79742932 -19 7 C-16.24454157 3.82062488 -14.67885916 2.23201625 -10.484375 1.65234375 C-6.69336627 1.61354688 -3.61235224 1.79588259 0 3 C0 2.01 0 1.02 0 0 Z " fill="#FFFFFF" transform="translate(49,56)"/>
<path d="M0 0 C2.49096626 1.15722054 3.2629898 2.36958993 4.734375 4.671875 C7.43365852 8.52110838 10.13355385 10.60660861 14.25 12.81640625 C15.984375 13.921875 15.984375 13.921875 17.984375 16.921875 C18.31164773 22.26732955 18.31164773 22.26732955 16.984375 24.921875 C15.994375 24.921875 15.004375 24.921875 13.984375 24.921875 C13.675 23.5296875 13.675 23.5296875 13.359375 22.109375 C11.59073213 18.00933926 9.99201102 17.69448324 5.984375 15.921875 C3.88102087 14.35149748 1.9566442 12.65935024 -0.015625 10.921875 C-0.015625 14.221875 -0.015625 17.521875 -0.015625 20.921875 C-4.890625 19.046875 -4.890625 19.046875 -6.015625 17.921875 C-6.00378957 15.44235345 -5.91721728 13.01828849 -5.765625 10.546875 C-5.73855469 9.86109375 -5.71148437 9.1753125 -5.68359375 8.46875 C-5.50826906 5.56175354 -5.29891426 3.36728763 -3.71875 0.8828125 C-2.015625 -0.078125 -2.015625 -0.078125 0 0 Z " fill="#FFFFFF" transform="translate(56.015625,25.078125)"/>
</svg>
