<?xml version="1.0" encoding="UTF-8"?>
<svg version="1.1" xmlns="http://www.w3.org/2000/svg" width="100" height="100">
<path d="M0 0 C6.12059371 5.41016765 11.78377904 15.35994204 13.0625 23.546875 C13.87352497 37.67742538 12.50909012 48.3644511 3.0625 59.546875 C-4.75847605 67.69079979 -13.29967032 72.87109995 -24.734375 73.8828125 C-38.22820833 74.01615077 -49.12854038 71.03625086 -59.1328125 61.44140625 C-68.4127354 51.49373982 -71.43859089 41.51003331 -71.1796875 28.00390625 C-70.37726455 16.54996574 -64.85679732 6.88884608 -56.5 -0.890625 C-39.25761677 -15.18134602 -17.24461982 -12.93346487 0 0 Z M-38.9375 15.546875 C-41.69694605 18.30632105 -41.19555677 19.93924198 -41.203125 23.796875 C-41.20570312 25.0446875 -41.20828125 26.2925 -41.2109375 27.578125 C-41.20320313 28.8878125 -41.19546875 30.1975 -41.1875 31.546875 C-41.19523437 32.8565625 -41.20296875 34.16625 -41.2109375 35.515625 C-41.20835938 36.7634375 -41.20578125 38.01125 -41.203125 39.296875 C-41.20086914 40.44671875 -41.19861328 41.5965625 -41.19628906 42.78125 C-41.22093676 45.68887332 -41.22093676 45.68887332 -38.9375 47.546875 C-37.2875 47.216875 -35.6375 46.886875 -33.9375 46.546875 C-33.9375 36.646875 -33.9375 26.746875 -33.9375 16.546875 C-35.5875 16.216875 -37.2375 15.886875 -38.9375 15.546875 Z M-23.9375 16.546875 C-23.96215622 20.80102123 -23.98033899 25.05512998 -23.99243164 29.30932617 C-23.99747101 30.75757573 -24.00430253 32.20582017 -24.01293945 33.65405273 C-24.02502247 35.73162088 -24.03073211 37.80912197 -24.03515625 39.88671875 C-24.04039307 41.13831787 -24.04562988 42.38991699 -24.05102539 43.67944336 C-24.26637035 46.44419794 -24.26637035 46.44419794 -22.9375 47.546875 C-20.4375 47.71354167 -20.4375 47.71354167 -17.9375 47.546875 C-15.60033991 45.20971491 -16.76587381 39.35854612 -16.75195312 36.24804688 C-16.75203369 35.5692749 -16.75211426 34.89050293 -16.75219727 34.19116211 C-16.75001266 32.12137236 -16.73186509 30.05211707 -16.71289062 27.98242188 C-16.71095703 26.68498047 -16.70902344 25.38753906 -16.70703125 24.05078125 C-16.70292236 22.85267822 -16.69881348 21.6545752 -16.69458008 20.42016602 C-16.6373842 17.41697485 -16.6373842 17.41697485 -18.9375 15.546875 C-21.8629644 15.3232682 -21.8629644 15.3232682 -23.9375 16.546875 Z " fill="#FFFFFF" transform="translate(78.9375,18.453125)"/>
</svg>
